Genre:Drama 
Language:English
IMDb:http://www.imdb.com/title/tt1023114/
Source:SERENiTY/IMAGiNE Thx.


Format : MPEG-4
Format profile : Base Media
Codec ID : isom
File size : 922 MiB
Duration : 2h 5mn
Overall bit rate : 1 029 Kbps
Movie name : The.Way.Back.2010.TS.x264.Feel-Free


Video
Format settings, CABAC : Yes
Format settings, ReFrames : 4 frames
Codec ID : avc1
Codec ID/Info : Advanced Video Coding
Duration : 2h 5mn
Bit rate mode : Variable
Bit rate : 867 Kbps
Width : 720 pixels
Height : 304 pixels
Display aspect ratio : 2.35:1
Frame rate mode : Constant
Frame rate : 25.000 fps
Color space : YUV
Chroma subsampling : 4:2:0
Bit depth : 8 bits
Scan type : Progressive
Bits/(Pixel*Frame) : 0.158
Stream size : 781 MiB (85%)
Writing library : x264

Audio
ID : 2
Format : AAC
Format/Info : Advanced Audio Codec
Format version : Version 4
Format profile : LC
Codec ID : 40
Duration : 2h 5mn
Bit rate mode : Variable
Bit rate : 152 Kbps
Channel(s) : 2 channels
Channel positions : Front: L R
Sampling rate : 44.1 KHz
Stream size : 136 MiB (15%)



Plot:
Siberian gulag escapees walk 4000 miles overland to freedom in India






================================== 
http://thepiratebay.org/user/hiest
==================================





Screenshots:
 
http://rapidhdd.com/images/565070vlcsnap-00001.png
 
http://www.rapidhdd.com/images/270203vlcsnap-00002.png
 
http://www.rapidhdd.com/images/352843vlcsnap-00003.png
 
http://www.rapidhdd.com/images/513716vlcsnap-00004.png
 
http://www.rapidhdd.com/images/936019vlcsnap-00005.png
 
http://www.rapidhdd.com/images/808039vlcsnap-00006.png